<?xml version="1.0" encoding="utf-8"?>
<!-- Generator: Adobe Illustrator 22.0.0, SVG Export Plug-In . SVG Version: 6.00 Build 0)  -->
<svg version="1.1" id="Layer_1" xmlns="http://www.w3.org/2000/svg" xmlns:xlink="http://www.w3.org/1999/xlink" x="0px" y="0px"
	 viewBox="0 0 220 100" style="enable-background:new 0 0 220 100;" xml:space="preserve">
<style type="text/css">
	.st0{clip-path:url(#SVGID_2_);}
	.st1{font-family:'ArialMT';}
	.st2{font-size:12.0691px;}
	.st3{letter-spacing:1;}
</style>
<g id="Group_123798" transform="translate(-890 -20)">
	<g id="Group_2" transform="translate(890 20)">
		<g>
			<defs>
				<rect id="SVGID_1_" x="4.4" y="9.1" width="211.2" height="58"/>
			</defs>
			<clipPath id="SVGID_2_">
				<use xlink:href="#SVGID_1_"  style="overflow:visible;"/>
			</clipPath>
			<g id="Group_1" class="st0">
				<path id="Path_1" d="M152,49.7c0.6-0.1,1.1-0.2,1.5-0.3c1.2-0.2,2.1-1.2,2.3-2.4c0.2-0.8,0.2-1.6,0.2-2.5l0.1-2.9v-6.9
					c0-0.9,0-1.8,0-2.8c0-0.9-0.1-1.9-0.1-2.9c0-1.2-0.6-2.4-1.6-3.1c-0.7-0.4-1.5-0.6-2.3-0.6v-0.2c1.2-0.2,2.4-0.5,3.6-0.8
					c1.1-0.3,2.1-0.7,3.2-1.1c0.1,0.7,0.3,1.5,0.3,2.2c0.1,1,0.2,2,0.2,3.1l0.1,2.2l1.1-2c0.2-0.3,0.4-0.6,0.6-0.9
					c-0.5,0.9-0.8,1.9-1,3c-0.3,1.4-0.4,2.8-0.4,4.2v4.6c0,1.5,0,3.1,0.1,4.8c0,0.8,0,1.6,0.2,2.3c0.1,0.6,0.4,1.1,0.8,1.6
					c0.4,0.4,0.9,0.7,1.5,0.8c0.5,0.1,0.9,0.2,1.4,0.3v0.1c-0.8,0-1.7-0.1-2.5-0.1c-1,0-2.1,0-3.2,0c-1,0-2.1,0-3.3,0
					c-0.9,0-1.8,0.1-2.6,0.1L152,49.7z M169.6,49.7c0.6-0.1,1.1-0.2,1.5-0.3c0.6-0.1,1.1-0.4,1.5-0.8c0.4-0.4,0.7-1,0.8-1.6
					c0.1-0.8,0.2-1.6,0.2-2.4l0.1-2.9v-7.1c0-1,0-2.1-0.1-3.2c-0.1-1.1-0.3-2.2-0.7-3.3c-0.3-1-0.9-2-1.7-2.7
					c-0.9-0.8-2.1-1.2-3.3-1.1c-1.4,0-2.8,0.2-4,0.9c-0.2,0.1-0.4,0.2-0.6,0.4c0.3-0.2,0.5-0.4,0.8-0.6c1.5-0.9,3.1-1.4,4.9-1.3
					c3,0,5.1,0.7,6.3,2.1c1.2,1.4,1.9,3.8,1.9,7v11.9c0,0.8,0.1,1.7,0.2,2.5c0.1,0.6,0.4,1.1,0.8,1.6c0.4,0.4,0.9,0.7,1.5,0.8
					c0.4,0.1,0.9,0.2,1.5,0.3v0.1c-0.8,0-1.6-0.1-2.4-0.1c-1,0-2.1,0-3.1,0c-1.1,0-2.3,0-3.4,0c-0.9,0-1.7,0.1-2.6,0.1L169.6,49.7z"
					/>
				<path id="Path_2" d="M66,50.5c-1.7,0-3.4-0.3-5-1c-1.6-0.7-3-1.7-4.2-2.9c-1.2-1.3-2.2-2.8-2.9-4.4c-0.7-1.7-1.1-3.6-1.1-5.5
					c0-1.8,0.4-3.5,1.1-5.2c0.7-1.6,1.7-3,3-4.2c1.2-1.2,2.7-2.1,4.2-2.8c1.5-0.6,3.2-1,4.9-1c1.7,0,3.3,0.3,4.9,1
					c1.6,0.7,3,1.6,4.3,2.8c1.3,1.2,2.3,2.6,3,4.2c0.8,1.7,1.1,3.5,1.1,5.3c0,1.9-0.3,3.7-1.1,5.4c-0.7,1.6-1.7,3.1-2.9,4.3
					c-1.2,1.2-2.6,2.2-4.2,2.8C69.5,50.2,67.7,50.5,66,50.5 M66.1,23.7c-1.5,0-3,0.4-4.3,1.2c-1.2,0.8-2.1,1.9-2.8,3.1
					c-0.7,1.3-1.1,2.7-1.4,4.1c-0.2,1.5-0.4,2.9-0.4,4.4c0,1.5,0.1,3,0.3,4.5c0.2,1.5,0.6,3,1.3,4.4c0.6,1.3,1.5,2.5,2.6,3.5
					c1.3,1,2.8,1.5,4.4,1.5c1.6,0.1,3.1-0.4,4.4-1.2c1.2-0.8,2.1-1.9,2.7-3.1c0.6-1.3,1.1-2.7,1.3-4.2c0.3-1.5,0.4-3,0.4-4.6
					c0-1.5-0.1-3-0.3-4.5c-0.2-1.5-0.6-3-1.3-4.4c-0.6-1.3-1.5-2.5-2.6-3.4C69.2,24.1,67.7,23.6,66.1,23.7"/>
				<path id="Path_3" d="M212.7,49c-0.9-0.5-1.6-1.2-2.2-2.1c-0.6-0.9-1-1.8-1.4-2.8c-0.4-1-13-35-13-35h-0.9
					c-0.4,1.2-1,2.8-1.6,4.6l0,0l-8,19h0c-0.1,0.3-3.1,7.4-3.6,8.9c-0.2,0.4-1.4,4.4,0.8,7c1.5,1.6,3.7,2.4,5.8,2.2
					c0.6,0,1.2-0.1,1.8-0.1v0c0,0,0.3,0,0.5,0c1.2-0.1,2.3-0.3,3.4-0.7l-0.5-1.4c-1,0.7-2.2,1.2-3.4,1.4c-3.4,0.3-5.8-0.2-7.1-1.8
					c-1.9-2.3-0.8-6-0.6-6.4c0.5-1.4,3.5-8.7,3.5-8.8l0,0l0.1-0.3c11.8,0,16.3,8,17.6,10.9c0.4,1.1,0.7,2.2,0.9,3.3
					c0,0.7-0.2,1.4-0.7,1.9c-0.4,0.4-0.9,0.7-1.5,0.8c-0.5,0.1-1,0.2-1.6,0.2c-0.3,0-0.5,0-0.7,0.1V50c1.2,0,2.5-0.1,3.7-0.1
					c1.5,0,3,0,4.4,0c1.3,0,2.6,0,3.9,0c1.1,0,2.2,0.1,3.3,0.1V50C214.6,49.8,213.6,49.5,212.7,49 M186.6,32.1l7.3-17.4
					c0,0,5.8,16.3,9,25.7C199.2,35.1,193.1,31.9,186.6,32.1"/>
				<path id="Path_4" d="M122.4,17c0.8,0.1,1.5,0.2,2.3,0.4l-0.3,0.9c-0.7-0.4-1.4-0.8-2.2-0.9c-0.1,0,0-0.4,0-0.4
					C122.3,17,122.4,17,122.4,17"/>
				<path id="Path_5" d="M53.1,49.1c-0.9-0.5-1.7-1.2-2.3-2.1c-0.6-0.9-1-1.8-1.3-2.9c-0.3-1-0.6-2.1-1-3.3l-9.2-30.6h-0.9L28,41.6
					L16.4,10.2h-0.7l-1.3,4.5c-0.9,2.8-7.6,23-8.6,25.7c-1.6,4.3-1.7,7.1-0.4,8.7c1.2,1.2,2.8,1.8,4.5,1.6c0.7,0,1.4-0.1,2.1-0.2
					l0,0c0,0,0.3,0,0.5,0c1.1-0.1,2.2-0.3,3.3-0.7l-0.5-1.3c-0.9,0.6-2,1.1-3.1,1.4C9,50.3,6.8,50,5.8,48.8c-1.2-1.4-1-4.1,0.5-8.1
					C7.1,38.4,11.9,24,14,17.6l11.7,32.2l10.8-32.5l6.1,21c0.3,1,0.6,2.1,1,3.3c0.4,1.3,0.7,2.6,0.7,3.9c0,2.8-1.4,3.8-2.6,4.1
					c-1,0.3-2,0.4-3,0.5v0.1c1.2-0.1,2.4-0.1,3.5-0.1c1.4,0,2.9-0.1,4.4-0.1c1.7,0,3.4,0,5.1,0.1c1.4,0,2.8,0.1,4.2,0.1V50
					C54.8,49.8,53.9,49.5,53.1,49.1"/>
				<path id="Path_6" d="M124.2,52.8c-0.5-1.2-1.4-2.3-2.5-2.9c-0.8-0.4-1.7-0.7-2.6-0.9c-1.1-0.2-2.2-0.3-3.4-0.4
					c-1.2-0.1-2.3-0.1-3.5-0.2c-1.2,0-2.2-0.1-3.1-0.2c-0.3,0-0.7,0-1.2,0c-0.5,0-0.9-0.1-1.4-0.2c-0.5-0.1-0.9-0.4-1.2-0.7
					c-0.5-0.4-0.7-1-0.7-1.6c0-1.1,0.7-2.1,1.7-2.5c1.1-0.4,2.2-0.7,3.4-0.8c0.6-0.1,1.2-0.1,1.8-0.2c-1,0-2-0.3-2.9-1
					c-0.8-0.6-1.5-1.4-1.9-2.3c-0.5-1-0.8-2-1-3.1c-0.2-1-0.2-2-0.2-3.1c0-1,0.1-2.1,0.3-3.1c0.2-1,0.6-1.9,1.1-2.8
					c0.5-0.9,1.1-1.6,1.9-2.2c0.9-0.6,1.9-0.9,3-0.9c0,0,0.1,0,0.1,0c-0.3,1.2-0.3,2.5-0.2,3.7c0.6,3.3,3.1,5.9,6.4,6.5
					c0,0.9-0.1,1.8-0.3,2.6c-0.2,1-0.6,1.9-1.1,2.8c-0.5,0.8-1.2,1.5-2,2c-0.5,0.3-1,0.5-1.6,0.7l0.3,0c1,0,2-0.2,2.9-0.5
					c1.6-0.6,3-1.6,3.9-3.1c1-1.5,1.5-3.2,1.5-4.9c0.1-2.2-0.6-4.4-1.8-6.2l-0.9-1c-1.8-1.7-4.2-2.7-6.6-2.6c0.3-1.5,1-2.9,2-4.1
					c1.8-1.9,4.6-2.7,8.2-2.2l0.1-0.4c-3.8-0.5-6.6,0.3-8.5,2.3c-1.1,1.2-1.8,2.7-2.1,4.4c-1.2,0-2.3,0.2-3.4,0.6
					c-1.2,0.4-2.3,1-3.3,1.8c-1,0.8-1.8,1.8-2.3,2.9c-0.6,1.2-0.9,2.5-0.9,3.9c-0.1,1.8,0.5,3.7,1.6,5.2c1.1,1.4,2.5,2.5,4.1,3.2
					l1.9,0.8l-2,0.5c-1.2,0.3-2.4,0.9-3.3,1.7c-1,0.9-1.6,2.1-1.6,3.4c0,1.5,0.8,4.2,6,4.6c1.7,0.1,3.4,0.4,5.1,0.4
					c1.5,0,3,0.1,4.4,0.5c1.3,0.4,2.4,1.3,3.1,2.4c0.7,1.2,1.1,2.5,1.1,3.9c0,1.2-0.3,2.4-0.9,3.4c-0.6,0.9-1.3,1.7-2.2,2.3
					c-0.9,0.6-1.9,1.1-3,1.4c-1,0.3-2.1,0.4-3.1,0.4c-1,0-2.1-0.1-3.1-0.3c-1.1-0.2-2.2-0.5-3.2-1.1c-1-0.5-1.8-1.3-2.5-2.1
					c-0.7-1-1.1-2.3-1-3.5c0-1.2,0.2-2.3,0.8-3.4c0.4-0.7,0.9-1.2,1.5-1.6c-0.3-0.2-0.7-0.3-1.1-0.3c-1,0-2,0.5-2.5,1.4
					c-0.7,1-1.1,2.1-1.1,3.3c-0.1,1.3,0.3,2.6,1.1,3.6c0.8,1,1.8,1.8,3,2.4c1.2,0.6,2.6,1,3.9,1.3c1.2,0.2,2.5,0.4,3.7,0.4
					c1.5,0,3-0.2,4.4-0.6c1.4-0.4,2.7-1,3.8-1.9c1.1-0.9,2.1-1.9,2.7-3.2c0.7-1.4,1.1-3,1-4.5C125.1,55.5,124.8,54.1,124.2,52.8
					 M115.1,24.8c0.8,0.6,1.5,1.5,2,2.4c0.5,1,0.8,2,1,3.1c0.2,1.1,0.3,2.2,0.3,3.3l0,0c-3.1-0.6-5.5-3-6.1-6.1
					c-0.2-1.2-0.1-2.4,0.1-3.6C113.4,23.9,114.3,24.2,115.1,24.8"/>
				<path id="Path_7" d="M149.2,48c-0.5,0.4-1.1,0.7-1.8,0.7c-0.7,0-1.3-0.3-1.7-0.8c-0.3-0.4-0.6-1-0.7-1.5
					c-0.2-0.6-0.2-1.1-0.3-1.7c0-0.6,0-1,0-1.5V31.2c0.1-1.4-0.2-2.7-0.7-4c-0.4-0.9-1.1-1.7-1.9-2.2c-1-0.6-2.2-0.9-3.3-1.2
					c0,0,0,0,0,0c-1.2-0.2-2.3-0.3-3.5-0.2c-2.1,0-4.1,0.8-5.6,2.3c-0.9,1.2-1.3,2.7-1.2,4.2l-0.1,0c0,0.1,0,0.2,0,0.3
					c0,0.1,0,0.1,0,0.2c0,0,0,0,0,0l0,0c0.1,0.7,0.2,1.4,0.4,2.1l0.9-0.3c-0.4-0.6-0.7-1.3-0.9-2c-0.2-1.5,0.2-3,1.1-4.1
					c1.4-1.4,3.3-2.2,5.3-2.2c1.5-0.2,3,0,4.4,0.5c0.7,0.4,1.1,1,1.2,1.8c0.1,1,0.1,4.7,0.1,5.8c0,0.8-0.5,1.2-1.4,1.8
					c-0.8,0.5-4.8,2.4-6.5,3.3c-1.2,0.7-2.5,1.5-3.6,2.3c-1,0.7-1.9,1.6-2.7,2.7c-0.7,1-1,2.1-1,3.3c-0.1,1.4,0.5,2.7,1.5,3.6
					c1,0.9,2.3,1.3,3.6,1.3c1.7,0,3.3-0.4,4.8-1.3l0.2-0.1c-0.6,0.2-1.3,0.3-2,0.3c-1.4,0-2.6-0.7-3.3-1.9c-0.7-1.1-1-2.4-1-3.7
					c0.1-1.3,0.5-2.6,1.3-3.6c0.8-1,1.7-1.9,2.8-2.6c1.1-0.7,2.2-1.4,3.4-2c1.2-0.5,2.1-1,3-1.5l1-0.5V46c0.1,1.2,0.6,2.3,1.5,3.1
					c0.8,0.7,1.9,1,2.9,1c1,0,1.9-0.3,2.7-0.9c0.6-0.5,1.2-1.1,1.6-1.8C149.6,47.6,149.4,47.8,149.2,48"/>
				<path id="Path_8" d="M101.1,23.9c-0.7-0.2-1.4-0.3-2.2-0.4l-0.1,0h0c-2.3-0.4-4.7,0.2-6.5,1.6c-1.3,1.2-2.3,2.9-2.7,4.7
					c0-0.3,0-0.5,0-0.5c-0.1-1.1-0.2-2.3-0.3-3.3c-0.1-0.9-0.4-1.7-0.8-2.5c-2.1,0.9-4.3,1.5-6.6,1.9v0.2c0.8,0,1.6,0.3,2.4,0.6
					c1.1,0.7,1.7,1.9,1.7,3.1c0,1,0,1.9,0,2.9c0,0.9,0,1.8,0,2.8v6.9L86,44.6c0,0.8,0,1.6-0.2,2.4c-0.1,0.6-0.3,1.2-0.8,1.6
					c-0.4,0.4-0.9,0.7-1.5,0.8c-0.4,0.1-0.9,0.2-1.5,0.3v0.1c0.8,0,1.7-0.1,2.5-0.1c1.1,0,2.2,0,3.3,0c1.1,0,2.2,0,3.3,0
					c0.9,0,1.8,0.1,2.7,0.1v-0.1c-0.6-0.1-1.1-0.2-1.5-0.2c-0.6-0.1-1.2-0.3-1.7-0.7c-0.4-0.4-0.7-1-0.9-1.6
					c-0.2-0.8-0.3-1.6-0.3-2.5c-0.1-1.4-0.1-2.9-0.1-4.3v-4.2c0-0.7,0-2.5,0-4.1c0.1-2.5,1.2-4.8,2.9-6.6c1.7-1.3,3.9-1.9,6-1.5
					c0.8,0.2,1.5,0.5,2.2,0.9L101.1,23.9z"/>
			</g>
		</g>
	</g>
	<text transform="matrix(1 0 0 1 915.5171 107.5635)" class="st1 st2 st3">SKIN CARE &amp; COSMETIC</text>
</g>
</svg>
