<svg id="Group_53" data-name="Group 53" xmlns="http://www.w3.org/2000/svg" xmlns:xlink="http://www.w3.org/1999/xlink" width="84" height="71.029" viewBox="0 0 84 71.029">
  <defs>
    <clipPath id="clip-path">
      <rect id="Rectangle_72" data-name="Rectangle 72" width="84" height="71.029" fill="none"/>
    </clipPath>
  </defs>
  <g id="Group_52" data-name="Group 52" clip-path="url(#clip-path)">
    <path id="Path_135" data-name="Path 135" d="M201.933,182.614a.9.9,0,0,1-.9-.9v-8.4a.9.9,0,0,1,1.8,0v8.4a.9.9,0,0,1-.9.9" transform="translate(-130.103 -111.585)" fill="#262626"/>
    <path id="Path_136" data-name="Path 136" d="M201.933,135.467a.9.9,0,0,1-.9-.9v-8.4a.9.9,0,1,1,1.8,0v8.4a.9.9,0,0,1-.9.9" transform="translate(-130.103 -81.073)" fill="#262626"/>
    <path id="Path_137" data-name="Path 137" d="M220.009,162.542h-7.561a.9.9,0,0,1,0-1.8h7.561a.9.9,0,0,1,0,1.8" transform="translate(-136.909 -104.029)" fill="#262626"/>
    <path id="Path_138" data-name="Path 138" d="M177.548,162.542h-7.561a.9.9,0,0,1,0-1.8h7.561a.9.9,0,0,1,0,1.8" transform="translate(-109.429 -104.029)" fill="#262626"/>
    <path id="Path_139" data-name="Path 139" d="M32.026,140.374a.9.9,0,0,1-.9-.9v-8.181a.9.9,0,0,1,1.8,0v8.181a.9.9,0,0,1-.9.9" transform="translate(-20.144 -84.388)" fill="#262626"/>
    <path id="Path_140" data-name="Path 140" d="M32.026,94.434a.9.9,0,0,1-.9-.9V85.354a.9.9,0,0,1,1.8,0v8.181a.9.9,0,0,1-.9.9" transform="translate(-20.144 -54.656)" fill="#262626"/>
    <path id="Path_141" data-name="Path 141" d="M49.639,120.816H42.272a.9.9,0,0,1,0-1.8h7.368a.9.9,0,0,1,0,1.8" transform="translate(-26.775 -77.025)" fill="#262626"/>
    <path id="Path_142" data-name="Path 142" d="M8.267,120.816H.9a.9.9,0,0,1,0-1.8H8.267a.9.9,0,0,1,0,1.8" transform="translate(0 -77.025)" fill="#262626"/>
    <path id="Path_143" data-name="Path 143" d="M90.286,91.5a19.749,19.749,0,0,1-5.252-.7,17.948,17.948,0,0,1-4.858-2.141C75.984,86,66.159,77.818,65.524,59.159a.9.9,0,0,1,.869-.929h.031a.9.9,0,0,1,.9.869c.607,17.8,9.865,25.539,13.818,28.04a16.18,16.18,0,0,0,4.373,1.926,17.941,17.941,0,0,0,4.773.64,17.038,17.038,0,0,0,9.146-2.566c3.953-2.5,13.211-10.239,13.818-28.034a.9.9,0,0,1,1.8.061c-.635,18.653-10.46,26.839-14.654,29.494A18.836,18.836,0,0,1,90.286,91.5" transform="translate(-42.405 -37.684)" fill="#262626"/>
    <path id="Path_144" data-name="Path 144" d="M51.653,15.327c-.026,0-.052,0-.078,0a.9.9,0,0,1-.676-.4A32.079,32.079,0,0,1,45.734,1,.9.9,0,0,1,47.522.8a29.523,29.523,0,0,0,4.284,12.186c3.9-3.827,9.805-7.4,16.415-9.907a.9.9,0,0,1,.639,1.682C62.023,7.351,55.991,11.1,52.311,15.041a.9.9,0,0,1-.658.286" transform="translate(-29.594 0)" fill="#262626"/>
    <path id="Path_145" data-name="Path 145" d="M152.765,15.334a.9.9,0,0,1-.658-.286c-6.841-7.332-20.982-12.983-29.056-13.137a.9.9,0,0,1,.016-1.8h.018c8.15.156,21.962,5.435,29.527,12.877A29.556,29.556,0,0,0,156.9.8a.9.9,0,0,1,1.788.206,32.12,32.12,0,0,1-5.167,13.914.9.9,0,0,1-.676.405c-.026,0-.052,0-.078,0" transform="translate(-79.064 -0.005)" fill="#262626"/>
    <path id="Path_146" data-name="Path 146" d="M101.306,70.437c-2.369,0-4.452-1.11-5.184-2.762a.9.9,0,0,1,1.645-.729,4.555,4.555,0,0,0,7.084,0,.9.9,0,1,1,1.646.729c-.731,1.652-2.817,2.762-5.191,2.762" transform="translate(-62.157 -42.979)" fill="#262626"/>
    <path id="Path_147" data-name="Path 147" d="M150.787,70.437c-2.37,0-4.453-1.11-5.184-2.762a.9.9,0,0,1,1.646-.729,4.555,4.555,0,0,0,7.084,0,.9.9,0,0,1,1.645.729c-.731,1.652-2.818,2.762-5.19,2.762" transform="translate(-94.181 -42.979)" fill="#262626"/>
    <path id="Path_148" data-name="Path 148" d="M122.672,114.215a25.894,25.894,0,0,1-6.562-.807.9.9,0,1,1,.463-1.738,25.773,25.773,0,0,0,12.2,0,.9.9,0,0,1,.463,1.738,25.893,25.893,0,0,1-6.563.807" transform="translate(-74.711 -72.249)" fill="#262626"/>
  </g>
</svg>
