<svg xmlns="http://www.w3.org/2000/svg" xmlns:xlink="http://www.w3.org/1999/xlink" width="84.45" height="80.61" viewBox="0 0 84.45 80.61">
  <defs>
    <clipPath id="clip-path">
      <rect id="Rectangle_70" data-name="Rectangle 70" width="84.45" height="80.61" fill="none"/>
    </clipPath>
  </defs>
  <g id="Group_48" data-name="Group 48" clip-path="url(#clip-path)">
    <path id="Path_107" data-name="Path 107" d="M22.259,129.9a.825.825,0,0,1-.825-.825v-4.431a.825.825,0,1,1,1.65,0v4.431a.825.825,0,0,1-.825.825" transform="translate(-14.5 -83.761)" fill="#262626"/>
    <path id="Path_108" data-name="Path 108" d="M22.259,88.07a.825.825,0,0,1-.825-.825V82.814a.825.825,0,1,1,1.65,0v4.431a.825.825,0,0,1-.825.825" transform="translate(-14.5 -55.463)" fill="#262626"/>
    <path id="Path_109" data-name="Path 109" d="M38.71,111.4H36.327a.825.825,0,1,1,0-1.65H38.71a.825.825,0,1,1,0,1.65" transform="translate(-24.016 -74.244)" fill="#262626"/>
    <path id="Path_110" data-name="Path 110" d="M3.208,111.4H.825a.825.825,0,1,1,0-1.65H3.208a.825.825,0,1,1,0,1.65" transform="translate(0 -74.244)" fill="#262626"/>
    <path id="Path_111" data-name="Path 111" d="M168.409,38.518a.825.825,0,0,1-.825-.825V35.221a.825.825,0,0,1,1.65,0v2.472a.825.825,0,0,1-.825.825" transform="translate(-113.366 -23.268)" fill="#262626"/>
    <path id="Path_112" data-name="Path 112" d="M168.409,4.114a.825.825,0,0,1-.825-.825V.825a.825.825,0,0,1,1.65,0V3.289a.825.825,0,0,1-.825.825" transform="translate(-113.366 0)" fill="#262626"/>
    <path id="Path_113" data-name="Path 113" d="M182.722,22.656H181.8a.825.825,0,1,1,0-1.65h.922a.825.825,0,0,1,0,1.65" transform="translate(-122.424 -14.21)" fill="#262626"/>
    <path id="Path_114" data-name="Path 114" d="M153.117,22.656h-.922a.825.825,0,0,1,0-1.65h.922a.825.825,0,1,1,0,1.65" transform="translate(-102.398 -14.21)" fill="#262626"/>
    <path id="Path_115" data-name="Path 115" d="M48.751,125.532a.858.858,0,0,1-.1-.006c-.069-.008-6.794-1.276-5.66-10.671.566-4.692,3.081-7.817,5.513-10.84a23.734,23.734,0,0,0,4.337-6.84c2.268-6.4,2.637-21.906,2.759-27a.825.825,0,0,1,1.65.039c-.123,5.16-.5,20.861-2.853,27.512a25.364,25.364,0,0,1-4.607,7.324c-2.392,2.972-4.651,5.779-5.161,10-.364,3.018.166,5.474,1.534,7.1a4.948,4.948,0,0,0,2.693,1.733.825.825,0,0,1-.1,1.644" transform="translate(-28.993 -46.926)" fill="#262626"/>
    <path id="Path_116" data-name="Path 116" d="M161.813,181.081a.825.825,0,0,1-.1-1.644c.052-.006,5.172-1.011,4.227-8.831-.511-4.225-2.769-7.032-5.161-10a25.353,25.353,0,0,1-4.608-7.328c-.082-.226-.159-.466-.237-.718a.825.825,0,1,1,1.577-.486c.069.226.138.439.214.647a23.758,23.758,0,0,0,4.34,6.851c2.431,3.022,4.946,6.146,5.513,10.839.967,8-3.882,10.442-5.657,10.667a.9.9,0,0,1-.1.006" transform="translate(-105.458 -102.477)" fill="#262626"/>
    <path id="Path_117" data-name="Path 117" d="M149,78.468a.825.825,0,0,1-.823-.786c-.145-3.117-.212-5.846-.252-7.477a.825.825,0,0,1,1.65-.04c.04,1.624.107,4.342.25,7.441a.824.824,0,0,1-.786.863H149" transform="translate(-100.067 -46.92)" fill="#262626"/>
    <path id="Path_118" data-name="Path 118" d="M88.259,232.847c-3.818,0-6.386-2.166-8.45-3.907-1.9-1.6-3.132-2.561-4.535-2.14a.825.825,0,1,1-.474-1.58c2.327-.7,4.146.835,6.072,2.459,1.955,1.649,4.172,3.518,7.387,3.518s5.431-1.869,7.386-3.518c1.925-1.624,3.744-3.16,6.072-2.459a.825.825,0,0,1-.474,1.58c-1.4-.421-2.636.54-4.534,2.14-2.064,1.741-4.633,3.907-8.45,3.907" transform="translate(-50.202 -152.237)" fill="#262626"/>
    <path id="Path_119" data-name="Path 119" d="M207.09,58.532a.825.825,0,0,1-.664-1.314l9.687-13.164a.825.825,0,0,1,1.329.978L207.755,58.2a.823.823,0,0,1-.665.336" transform="translate(-139.533 -29.574)" fill="#262626"/>
    <path id="Path_120" data-name="Path 120" d="M228.4,72.83a.825.825,0,0,1-.682-1.288l9.172-13.528a.825.825,0,1,1,1.365.926l-9.172,13.528a.824.824,0,0,1-.683.362" transform="translate(-153.95 -39)" fill="#262626"/>
    <path id="Path_121" data-name="Path 121" d="M201.894,93.972a2.312,2.312,0,0,1-1.338-.425l-10-7.063A2.325,2.325,0,0,1,190,83.243l1.482-2.1a2.324,2.324,0,0,1,3.24-.557l10,7.064a2.324,2.324,0,0,1,.557,3.24l-1.482,2.1a2.324,2.324,0,0,1-1.9.983m-8.509-12.16a.678.678,0,0,0-.553.285l-1.483,2.1a.675.675,0,0,0,.162.941l10,7.063a.677.677,0,0,0,.942-.162l1.481-2.1a.675.675,0,0,0-.161-.941l-10-7.063h0a.666.666,0,0,0-.387-.124" transform="translate(-128.242 -54.227)" fill="#262626"/>
    <path id="Path_122" data-name="Path 122" d="M170.591,120.049a2.1,2.1,0,0,1-.533-.069,40.754,40.754,0,0,1-23.4-16.536,2.1,2.1,0,0,1-.2-1.982,2.072,2.072,0,0,1,1.521-1.251,78.159,78.159,0,0,0,13.741-4.488.825.825,0,0,1,.787.09l9.456,6.681a.826.826,0,0,1,.348.712,78.239,78.239,0,0,0,.359,14.451,2.071,2.071,0,0,1-.67,1.851,2.1,2.1,0,0,1-1.4.539m-8.673-22.627a78.19,78.19,0,0,1-13.628,4.409.422.422,0,0,0-.313.259.449.449,0,0,0,.043.427,39.1,39.1,0,0,0,22.456,15.867.451.451,0,0,0,.416-.1.417.417,0,0,0,.14-.381,78.231,78.231,0,0,1-.4-14.318Z" transform="translate(-98.962 -64.714)" fill="#262626"/>
  </g>
</svg>
