<?xml version="1.0" encoding="iso-8859-1"?>
<!-- Generator: Adobe Illustrator 27.3.1, SVG Export Plug-In . SVG Version: 6.00 Build 0)  -->
<svg version="1.1" id="Layer_1" xmlns="http://www.w3.org/2000/svg" xmlns:xlink="http://www.w3.org/1999/xlink" x="0px" y="0px"
	 viewBox="0 0 140 54" style="enable-background:new 0 0 140 54;" xml:space="preserve">
<g id="Group_123798" transform="translate(-890 -20)">
	<g id="Group_2" transform="translate(890 20)">
		<g>
			<defs>
				<rect id="SVGID_1_" y="1.275" width="139" height="37.898"/>
			</defs>
			<clipPath id="SVGID_00000011753258729912527770000002384468239598026422_">
				<use xlink:href="#SVGID_1_"  style="overflow:visible;"/>
			</clipPath>
			<g id="Group_1" style="clip-path:url(#SVGID_00000011753258729912527770000002384468239598026422_);">
				<path id="Path_1" style="stroke:#000000;stroke-width:0.5;stroke-miterlimit:10;" d="M97.34,27.795
					c0.383-0.057,0.697-0.115,0.953-0.174c0.781-0.136,1.388-0.755,1.505-1.537c0.1-0.529,0.144-1.066,0.132-1.604l0.059-1.867
					v-4.491c0-0.591-0.01-1.196-0.031-1.813c-0.02-0.617-0.051-1.249-0.091-1.895c0.026-0.815-0.38-1.585-1.069-2.025
					c-0.476-0.23-0.992-0.364-1.52-0.394v-0.099c0.792-0.117,1.574-0.294,2.339-0.531c0.7-0.217,1.397-0.458,2.076-0.72
					c0.096,0.473,0.166,0.951,0.21,1.431c0.061,0.657,0.11,1.326,0.149,2.007l0.088,1.47l0.736-1.276
					c0.118-0.205,0.24-0.402,0.368-0.591c-0.319,0.612-0.546,1.267-0.673,1.945c-0.172,0.904-0.255,1.822-0.249,2.741v3.016
					c0,1.003,0.021,2.051,0.061,3.115c-0.012,0.51,0.032,1.02,0.132,1.521c0.072,0.377,0.243,0.727,0.494,1.017
					c0.266,0.271,0.603,0.463,0.973,0.554c0.305,0.081,0.614,0.147,0.926,0.197v0.073c-0.548-0.026-1.089-0.046-1.623-0.06
					c-0.686-0.018-1.382-0.028-2.089-0.029c-0.686,0-1.402,0.01-2.149,0.029c-0.584,0.014-1.155,0.035-1.715,0.06L97.34,27.795z
					 M108.871,27.795c0.386-0.057,0.707-0.115,0.977-0.173c0.378-0.068,0.728-0.242,1.011-0.501c0.279-0.29,0.456-0.661,0.505-1.06
					c0.075-0.522,0.108-1.05,0.099-1.577l0.06-1.867v-4.661c0-0.655-0.031-1.351-0.092-2.07c-0.06-0.725-0.203-1.441-0.427-2.133
					c-0.211-0.677-0.595-1.289-1.114-1.774c-0.595-0.513-1.366-0.778-2.152-0.739c-0.912-0.032-1.817,0.162-2.634,0.566
					c-0.136,0.073-0.268,0.153-0.395,0.24c0.171-0.141,0.35-0.273,0.536-0.394c0.951-0.603,2.061-0.909,3.188-0.88
					c1.948,0,3.347,0.453,4.158,1.348c0.812,0.895,1.24,2.455,1.24,4.601v7.774c-0.014,0.543,0.036,1.085,0.149,1.616
					c0.08,0.379,0.259,0.73,0.519,1.017c0.272,0.263,0.616,0.44,0.988,0.51c0.261,0.058,0.578,0.115,0.963,0.173v0.068
					c-0.544-0.026-1.075-0.046-1.593-0.06c-0.666-0.018-1.352-0.028-2.059-0.029c-0.746,0-1.487,0.01-2.224,0.029
					c-0.576,0.014-1.142,0.035-1.699,0.06L108.871,27.795z"/>
				<path id="Path_2" style="stroke:#000000;stroke-width:0.5;stroke-miterlimit:10;" d="M40.952,28.328
					c-1.135,0.005-2.258-0.223-3.301-0.669c-1.027-0.439-1.956-1.078-2.733-1.88c-0.797-0.833-1.434-1.805-1.878-2.867
					c-0.476-1.142-0.715-2.368-0.703-3.604c-0.009-1.163,0.239-2.313,0.726-3.369c0.471-1.022,1.129-1.949,1.938-2.732
					c0.801-0.77,1.739-1.383,2.768-1.806c1.009-0.422,2.092-0.64,3.187-0.643c1.1,0,2.188,0.228,3.196,0.668
					c1.031,0.447,1.977,1.07,2.794,1.839c0.827,0.782,1.493,1.717,1.963,2.753c0.492,1.095,0.74,2.284,0.727,3.484
					c0.013,1.218-0.226,2.426-0.701,3.549c-0.445,1.045-1.082,1.999-1.878,2.811c-0.782,0.786-1.715,1.407-2.744,1.825
					c-1.065,0.432-2.205,0.651-3.355,0.645 M41.019,10.79c-1.002-0.03-1.991,0.242-2.836,0.781
					c-0.765,0.514-1.389,1.211-1.815,2.028c-0.444,0.848-0.749,1.761-0.903,2.705c-0.164,0.957-0.246,1.925-0.247,2.896
					c0.004,0.978,0.076,1.955,0.214,2.924c0.134,1.003,0.415,1.982,0.834,2.904c0.399,0.88,0.989,1.66,1.728,2.284
					c0.821,0.658,1.852,0.999,2.904,0.961c1.025,0.035,2.037-0.243,2.899-0.796c0.761-0.519,1.376-1.224,1.786-2.047
					c0.425-0.86,0.718-1.779,0.869-2.725c0.164-0.984,0.247-1.98,0.247-2.978c-0.005-0.978-0.077-1.955-0.215-2.924
					c-0.132-0.996-0.413-1.967-0.835-2.88c-0.397-0.859-0.984-1.616-1.717-2.216C43.097,11.07,42.067,10.747,41.019,10.79"/>
				<path id="Path_3" style="stroke:#000000;stroke-width:0.5;stroke-miterlimit:10;" d="M137.12,27.341
					c-0.569-0.341-1.057-0.8-1.431-1.347c-0.375-0.569-0.674-1.185-0.89-1.831c-0.231-0.663-8.544-22.886-8.544-22.886h-0.617
					c-0.283,0.789-0.634,1.8-1.052,3.033l0,0l-5.225,12.42h-0.005c-0.083,0.197-2.017,4.839-2.332,5.783
					c-0.099,0.289-0.896,2.876,0.494,4.563c0.994,1.026,2.402,1.545,3.826,1.41c0.366,0,0.772-0.038,1.18-0.08v0.012
					c0,0,0.222-0.014,0.314-0.025c0.768-0.064,1.526-0.217,2.259-0.454l-0.346-0.896c-0.67,0.472-1.437,0.792-2.245,0.936
					c-2.241,0.228-3.824-0.153-4.665-1.174c-1.245-1.51-0.506-3.893-0.417-4.16c0.307-0.93,2.298-5.705,2.318-5.754l0,0l0.071-0.169
					c7.733,0.011,10.712,5.224,11.551,7.136c0.247,0.694,0.438,1.406,0.571,2.13c0.026,0.455-0.134,0.901-0.444,1.237
					c-0.262,0.266-0.594,0.455-0.957,0.545c-0.338,0.084-0.684,0.135-1.033,0.151c-0.173,0.01-0.335,0.021-0.486,0.035v0.063
					c0.797-0.028,1.605-0.05,2.425-0.065c0.976-0.019,1.937-0.029,2.883-0.029c0.826,0,1.672,0.01,2.538,0.029
					c0.712,0.014,1.425,0.035,2.138,0.064v-0.06c-0.661-0.074-1.3-0.283-1.878-0.612 M119.997,16.297l4.806-11.363
					c0,0,3.831,10.622,5.878,16.796C128.281,18.221,124.254,16.173,119.997,16.297"/>
				<path id="Path_4" style="stroke:#000000;stroke-width:0.5;stroke-miterlimit:10;" d="M77.966,6.438
					c0.504,0.047,1.002,0.143,1.488,0.286l-0.219,0.566c-0.444-0.29-0.94-0.494-1.46-0.601c-0.065-0.011,0.007-0.25,0.007-0.25
					c0.061-0.004,0.123-0.004,0.184,0"/>
				<path id="Path_5" style="stroke:#000000;stroke-width:0.5;stroke-miterlimit:10;" d="M32.522,27.369
					c-0.584-0.347-1.089-0.811-1.483-1.364c-0.392-0.573-0.684-1.208-0.863-1.879c-0.177-0.638-0.395-1.35-0.671-2.158L23.478,1.998
					h-0.605L16.08,22.489L8.469,1.998H7.983L7.119,4.955c-0.615,1.853-4.985,15.032-5.647,16.8c-1.05,2.802-1.129,4.608-0.238,5.675
					C2,28.201,3.075,28.585,4.158,28.473c0.47-0.019,0.939-0.065,1.404-0.137l0.007,0.014c0,0,0.211-0.013,0.297-0.024
					c0.726-0.061,1.443-0.205,2.136-0.43L7.674,27.05c-0.614,0.414-1.297,0.715-2.017,0.887c-2.045,0.279-3.449,0.044-4.116-0.757
					c-0.777-0.934-0.677-2.661,0.304-5.29C2.402,20.411,5.542,10.971,6.92,6.823l7.666,21.052l7.087-21.261l3.969,13.701
					c0.177,0.627,0.399,1.342,0.666,2.146c0.281,0.82,0.429,1.679,0.439,2.545c0,1.819-0.94,2.453-1.73,2.661
					c-0.642,0.173-1.3,0.283-1.963,0.329v0.036c0.8-0.039,1.564-0.069,2.291-0.09c0.937-0.028,1.889-0.042,2.856-0.042
					c1.12,0,2.237,0.014,3.35,0.042c0.896,0.022,1.81,0.053,2.744,0.093v-0.081c-0.627-0.076-1.232-0.278-1.779-0.591"/>
				<path id="Path_6" style="stroke:#000000;stroke-width:0.5;stroke-miterlimit:10;" d="M79.093,29.802
					c-0.326-0.802-0.915-1.471-1.67-1.898c-0.529-0.292-1.106-0.489-1.704-0.581c-0.727-0.128-1.461-0.219-2.197-0.272
					c-0.758-0.054-1.516-0.095-2.273-0.123c-0.768-0.028-1.444-0.059-2.001-0.099c-0.209,0-0.464-0.01-0.766-0.029
					c-0.305-0.016-0.606-0.069-0.898-0.157c-0.299-0.09-0.575-0.243-0.809-0.449c-0.297-0.267-0.458-0.653-0.438-1.052
					c-0.009-0.726,0.451-1.376,1.141-1.609c0.704-0.286,1.446-0.47,2.202-0.545c0.387-0.044,0.779-0.084,1.172-0.12
					c-0.679-0.008-1.339-0.227-1.888-0.626c-0.532-0.41-0.965-0.933-1.268-1.532c-0.321-0.629-0.534-1.307-0.632-2.006
					c-0.1-0.662-0.152-1.33-0.155-2c0-0.679,0.074-1.355,0.22-2.018c0.138-0.647,0.371-1.271,0.692-1.85
					c0.313-0.562,0.748-1.046,1.274-1.417c0.575-0.393,1.259-0.595,1.956-0.579c0.02,0,0.035,0.008,0.054,0.008
					c-0.172,0.798-0.206,1.62-0.099,2.429c0.379,2.149,2.062,3.834,4.215,4.222c-0.01,0.577-0.079,1.152-0.206,1.715
					c-0.147,0.635-0.393,1.243-0.73,1.802c-0.33,0.539-0.78,0.994-1.315,1.332c-0.325,0.204-0.683,0.35-1.059,0.433l0.205-0.014
					c0.647-0.032,1.289-0.135,1.914-0.308c1.047-0.371,1.944-1.075,2.551-2.003c0.646-0.952,0.987-2.076,0.979-3.225
					c0.05-1.446-0.374-2.87-1.208-4.054l-0.614-0.637c-1.163-1.13-2.731-1.75-4.355-1.721c0.187-0.986,0.638-1.902,1.305-2.654
					c1.18-1.258,2.983-1.748,5.363-1.447l0.034-0.265c-2.471-0.311-4.349,0.204-5.593,1.529c-0.718,0.801-1.197,1.787-1.384,2.845
					c-0.761,0.016-1.515,0.147-2.237,0.389c-0.781,0.263-1.51,0.659-2.155,1.171c-0.638,0.513-1.157,1.157-1.522,1.889
					c-0.388,0.79-0.583,1.66-0.569,2.539c-0.04,1.207,0.321,2.393,1.026,3.374c0.704,0.929,1.639,1.659,2.713,2.115l1.235,0.538
					l-1.315,0.296c-0.807,0.178-1.553,0.567-2.161,1.126c-0.653,0.559-1.029,1.375-1.028,2.234c0,1.001,0.506,2.733,3.907,2.982
					c1.087,0.08,2.21,0.231,3.355,0.231c0.973-0.029,1.946,0.07,2.893,0.296c0.846,0.266,1.572,0.819,2.053,1.562
					c0.484,0.757,0.733,1.638,0.719,2.535c0.025,0.79-0.181,1.57-0.593,2.245c-0.38,0.588-0.869,1.098-1.44,1.504
					c-0.585,0.412-1.241,0.716-1.934,0.896c-0.665,0.181-1.351,0.274-2.04,0.278c-0.681-0.006-1.361-0.068-2.032-0.186
					c-0.724-0.121-1.425-0.356-2.076-0.696c-0.641-0.338-1.197-0.818-1.624-1.403c-0.467-0.677-0.702-1.486-0.672-2.308
					c-0.016-0.763,0.164-1.516,0.522-2.19c0.23-0.426,0.571-0.782,0.988-1.03c-0.215-0.122-0.458-0.185-0.706-0.183
					c-0.674,0-1.298,0.358-1.636,0.939c-0.451,0.641-0.692,1.405-0.692,2.187c-0.036,0.846,0.223,1.679,0.733,2.356
					c0.521,0.656,1.185,1.186,1.94,1.551c0.814,0.399,1.678,0.684,2.57,0.848c0.806,0.159,1.626,0.244,2.447,0.255
					c0.983-0.001,1.961-0.13,2.91-0.385c0.908-0.239,1.761-0.651,2.513-1.212c0.736-0.557,1.346-1.263,1.791-2.07
					c0.477-0.916,0.712-1.938,0.683-2.969c-0.003-0.94-0.2-1.869-0.58-2.728 M73.176,11.502c0.542,0.417,0.982,0.951,1.285,1.563
					c0.312,0.639,0.524,1.321,0.629,2.024c0.112,0.709,0.17,1.426,0.171,2.144l0,0c-2.034-0.378-3.621-1.973-3.983-4.005
					c-0.11-0.78-0.079-1.573,0.093-2.342c0.65,0.023,1.278,0.236,1.807,0.614"/>
				<path id="Path_7" style="stroke:#000000;stroke-width:0.5;stroke-miterlimit:10;" d="M95.473,26.707
					c-0.321,0.284-0.737,0.437-1.165,0.429c-0.428,0.013-0.837-0.179-1.101-0.516c-0.225-0.294-0.389-0.629-0.483-0.986
					c-0.101-0.365-0.162-0.739-0.181-1.117c-0.021-0.369-0.031-0.686-0.031-0.951v-7.886c0.038-0.891-0.121-1.78-0.467-2.602
					c-0.269-0.584-0.694-1.083-1.229-1.442c-0.684-0.364-1.422-0.619-2.185-0.754c0.005,0.006,0.012,0.008,0.017,0.013
					c-0.756-0.156-1.53-0.204-2.299-0.141c-1.372,0.005-2.686,0.55-3.657,1.517c-0.596,0.778-0.87,1.755-0.765,2.728l-0.035,0.008
					c-0.004,0.061-0.004,0.122,0,0.183c0.005,0.044,0.011,0.058,0.017,0.099c0,0.007,0,0.012,0,0.019l0,0
					c0.052,0.461,0.141,0.917,0.267,1.363l0.567-0.218c-0.256-0.404-0.447-0.846-0.564-1.309c-0.133-0.96,0.124-1.932,0.715-2.702
					c0.924-0.909,2.169-1.42,3.467-1.422c0.977-0.116,1.967,0.004,2.888,0.35c0.447,0.237,0.746,0.681,0.798,1.183
					c0.061,0.637,0.093,3.087,0.093,3.819c0,0.525-0.297,0.799-0.921,1.206c-0.511,0.335-3.163,1.566-4.231,2.177
					c-0.783,0.449-1.663,0.993-2.38,1.5c-0.677,0.473-1.267,1.06-1.745,1.733c-0.443,0.631-0.673,1.385-0.658,2.155
					c-0.053,0.892,0.322,1.756,1.011,2.328c0.663,0.559,1.504,0.862,2.372,0.855c1.101,0.001,2.183-0.281,3.143-0.817l0.147-0.082
					c-0.421,0.135-0.861,0.204-1.304,0.203c-0.899,0.021-1.735-0.455-2.174-1.237c-0.446-0.725-0.681-1.558-0.679-2.408
					c0.033-0.851,0.334-1.669,0.861-2.339c0.516-0.65,1.126-1.221,1.81-1.693c0.701-0.489,1.443-0.918,2.217-1.281
					c0.758-0.357,1.406-0.674,1.945-0.948l0.643-0.328v7.959c0.05,0.778,0.394,1.509,0.962,2.045
					c0.544,0.426,1.216,0.655,1.908,0.651c0.643,0.016,1.272-0.19,1.779-0.585c0.41-0.321,0.76-0.711,1.035-1.152
					c-0.134,0.139-0.272,0.27-0.41,0.394"/>
				<path id="Path_8" style="stroke:#000000;stroke-width:0.5;stroke-miterlimit:10;" d="M63.998,10.961
					c-0.461-0.134-0.933-0.225-1.41-0.274l-0.074-0.009h-0.007c-1.511-0.286-3.072,0.1-4.274,1.057
					c-0.873,0.816-1.479,1.875-1.739,3.04c0-0.197,0-0.313,0-0.313c-0.04-0.743-0.099-1.479-0.179-2.174
					c-0.072-0.569-0.251-1.119-0.527-1.622c-1.389,0.574-2.841,0.984-4.325,1.221v0.105c0.535,0.032,1.059,0.166,1.544,0.394
					c0.715,0.435,1.138,1.221,1.106,2.055c0,0.641,0.01,1.263,0.03,1.868c0.02,0.605,0.03,1.208,0.031,1.812v4.496l-0.06,1.867
					c0.009,0.527-0.024,1.055-0.099,1.577c-0.049,0.398-0.226,0.77-0.504,1.06c-0.273,0.253-0.61,0.427-0.976,0.5
					c-0.255,0.059-0.569,0.117-0.953,0.174v0.068c0.554-0.026,1.11-0.046,1.668-0.06c0.716-0.018,1.448-0.028,2.194-0.029
					c0.706,0,1.431,0.01,2.175,0.029c0.593,0.014,1.186,0.035,1.779,0.061v-0.063c-0.38-0.053-0.71-0.1-0.988-0.142
					c-0.402-0.045-0.78-0.209-1.087-0.471c-0.29-0.289-0.491-0.655-0.579-1.055c-0.124-0.531-0.179-1.076-0.165-1.622
					c-0.06-0.945-0.091-1.899-0.091-2.836v-2.756c0-0.474,0-1.648,0.007-2.673c0.094-1.622,0.777-3.154,1.921-4.311
					c1.116-0.877,2.553-1.242,3.954-1.003c0.503,0.111,0.982,0.311,1.413,0.591L63.998,10.961z"/>
			</g>
		</g>
	</g>
	<g style="enable-background:new    ;">
		<path d="M907.724,67.268c-0.032,0.057-0.066,0.097-0.102,0.122s-0.081,0.038-0.134,0.038c-0.056,0-0.117-0.021-0.182-0.062
			c-0.065-0.042-0.144-0.088-0.234-0.139c-0.09-0.05-0.196-0.096-0.318-0.138c-0.121-0.041-0.265-0.062-0.43-0.062
			c-0.149,0-0.28,0.018-0.392,0.054c-0.112,0.036-0.206,0.086-0.282,0.15c-0.076,0.063-0.133,0.141-0.17,0.229
			c-0.038,0.09-0.056,0.188-0.056,0.294c0,0.136,0.038,0.25,0.114,0.34c0.076,0.091,0.177,0.168,0.302,0.232
			c0.125,0.063,0.268,0.121,0.428,0.172s0.324,0.104,0.492,0.162c0.168,0.058,0.332,0.124,0.492,0.2s0.303,0.172,0.428,0.288
			c0.125,0.115,0.226,0.258,0.302,0.426s0.114,0.372,0.114,0.612c0,0.261-0.045,0.506-0.134,0.733
			c-0.089,0.229-0.22,0.427-0.392,0.596c-0.172,0.17-0.382,0.303-0.63,0.4s-0.532,0.146-0.852,0.146
			c-0.184,0-0.365-0.019-0.544-0.055s-0.35-0.087-0.514-0.153c-0.164-0.067-0.318-0.147-0.462-0.24
			c-0.144-0.094-0.272-0.197-0.384-0.312l0.316-0.516c0.027-0.037,0.062-0.068,0.104-0.094s0.088-0.038,0.136-0.038
			c0.066,0,0.138,0.027,0.216,0.082c0.077,0.055,0.169,0.115,0.276,0.182c0.107,0.066,0.231,0.128,0.374,0.182
			c0.143,0.055,0.314,0.082,0.514,0.082c0.307,0,0.544-0.072,0.712-0.218s0.252-0.354,0.252-0.626c0-0.151-0.038-0.275-0.114-0.372
			c-0.076-0.096-0.177-0.177-0.302-0.242c-0.125-0.064-0.268-0.12-0.428-0.166c-0.16-0.045-0.323-0.094-0.488-0.147
			s-0.328-0.117-0.488-0.192c-0.16-0.074-0.303-0.172-0.428-0.292s-0.226-0.27-0.302-0.45c-0.076-0.18-0.114-0.401-0.114-0.666
			c0-0.21,0.042-0.415,0.126-0.615s0.206-0.378,0.366-0.532c0.16-0.154,0.357-0.278,0.592-0.372c0.235-0.094,0.504-0.14,0.808-0.14
			c0.341,0,0.656,0.053,0.944,0.159c0.288,0.107,0.534,0.257,0.736,0.448L907.724,67.268z"/>
		<path d="M911.308,68.64h0.252c0.101,0,0.185-0.014,0.252-0.042c0.066-0.027,0.124-0.072,0.172-0.134l1.596-2.02
			c0.066-0.086,0.136-0.145,0.21-0.179c0.073-0.033,0.166-0.05,0.278-0.05h0.928l-1.948,2.404c-0.115,0.146-0.233,0.251-0.356,0.312
			c0.088,0.032,0.167,0.077,0.238,0.135c0.071,0.057,0.138,0.132,0.202,0.226L915.14,72h-0.948c-0.128,0-0.223-0.018-0.286-0.054
			c-0.062-0.036-0.115-0.089-0.158-0.158l-1.636-2.136c-0.051-0.072-0.109-0.123-0.176-0.152c-0.067-0.029-0.163-0.044-0.288-0.044
			h-0.34V72h-1.076v-5.784h1.076V68.64z"/>
		<path d="M917.996,72h-1.08v-5.784h1.08V72z"/>
		<path d="M925.364,66.216V72h-0.552c-0.085,0-0.156-0.014-0.214-0.042c-0.057-0.028-0.113-0.075-0.166-0.142l-3.02-3.856
			c0.016,0.176,0.024,0.339,0.024,0.488V72h-0.948v-5.784h0.564c0.045,0,0.084,0.002,0.118,0.006
			c0.033,0.004,0.062,0.013,0.088,0.024s0.05,0.029,0.074,0.052c0.024,0.022,0.051,0.053,0.08,0.09l3.032,3.872
			c-0.008-0.093-0.015-0.186-0.02-0.275c-0.005-0.091-0.008-0.175-0.008-0.252v-3.517H925.364z"/>
		<path d="M934.968,70.636c0.059,0,0.11,0.022,0.156,0.068l0.424,0.46c-0.234,0.291-0.523,0.514-0.866,0.668
			s-0.754,0.232-1.234,0.232c-0.43,0-0.815-0.074-1.158-0.221s-0.635-0.351-0.878-0.611c-0.243-0.262-0.429-0.574-0.558-0.937
			s-0.194-0.759-0.194-1.188c0-0.435,0.069-0.833,0.208-1.194s0.334-0.673,0.586-0.934c0.252-0.262,0.553-0.465,0.902-0.61
			c0.35-0.146,0.736-0.218,1.16-0.218c0.421,0,0.795,0.069,1.122,0.208s0.604,0.319,0.834,0.544l-0.36,0.5
			c-0.021,0.031-0.048,0.06-0.082,0.084c-0.034,0.023-0.08,0.036-0.138,0.036c-0.04,0-0.082-0.012-0.124-0.034
			s-0.089-0.051-0.14-0.084s-0.109-0.07-0.176-0.11c-0.067-0.04-0.144-0.076-0.232-0.11c-0.088-0.033-0.19-0.061-0.306-0.084
			c-0.116-0.022-0.25-0.033-0.402-0.033c-0.259,0-0.496,0.046-0.71,0.138c-0.215,0.092-0.399,0.226-0.554,0.4
			c-0.155,0.174-0.275,0.388-0.36,0.64c-0.085,0.252-0.128,0.539-0.128,0.862c0,0.325,0.046,0.614,0.138,0.867
			c0.092,0.254,0.217,0.467,0.374,0.641c0.157,0.173,0.343,0.306,0.556,0.397c0.213,0.093,0.442,0.139,0.688,0.139
			c0.146,0,0.279-0.009,0.398-0.024s0.228-0.041,0.328-0.076c0.1-0.034,0.194-0.079,0.284-0.134s0.178-0.122,0.266-0.202
			c0.027-0.023,0.055-0.043,0.084-0.058S934.936,70.636,934.968,70.636z"/>
		<path d="M942.444,72h-0.832c-0.093,0-0.169-0.023-0.228-0.07c-0.059-0.046-0.103-0.104-0.132-0.174l-0.432-1.18h-2.396
			l-0.432,1.18c-0.021,0.062-0.062,0.117-0.124,0.168S937.73,72,937.64,72h-0.84l2.276-5.784h1.096L942.444,72z M940.544,69.816
			l-0.704-1.925c-0.035-0.085-0.071-0.187-0.108-0.304c-0.038-0.117-0.075-0.244-0.112-0.38c-0.035,0.136-0.071,0.264-0.108,0.382
			c-0.037,0.119-0.073,0.222-0.108,0.311l-0.7,1.916H940.544z"/>
		<path d="M948.76,72h-0.972c-0.184,0-0.317-0.072-0.4-0.216l-1.216-1.853c-0.045-0.069-0.095-0.118-0.15-0.147
			s-0.135-0.044-0.242-0.044h-0.46V72h-1.076v-5.784h1.764c0.392,0,0.729,0.041,1.01,0.122s0.512,0.195,0.692,0.342
			c0.18,0.147,0.313,0.322,0.398,0.526c0.085,0.204,0.128,0.429,0.128,0.674c0,0.194-0.029,0.379-0.086,0.552
			c-0.057,0.174-0.14,0.331-0.248,0.473c-0.108,0.141-0.241,0.265-0.4,0.372c-0.159,0.106-0.339,0.19-0.542,0.252
			c0.069,0.04,0.133,0.087,0.192,0.142c0.059,0.055,0.112,0.119,0.16,0.194L948.76,72z M945.992,68.968
			c0.203,0,0.379-0.025,0.53-0.076c0.151-0.05,0.275-0.12,0.372-0.21c0.097-0.089,0.17-0.195,0.218-0.317
			c0.048-0.123,0.072-0.258,0.072-0.404c0-0.293-0.097-0.519-0.29-0.676s-0.489-0.236-0.886-0.236h-0.688v1.92H945.992z"/>
		<path d="M951.667,67.072v1.604h2.024v0.828h-2.024v1.636h2.568V72h-3.648v-5.784h3.648v0.856H951.667z"/>
		<path d="M964.652,72h-0.969c-0.102,0-0.184-0.012-0.246-0.036c-0.062-0.023-0.129-0.074-0.197-0.152l-0.4-0.411
			c-0.254,0.208-0.537,0.37-0.852,0.487c-0.315,0.117-0.655,0.177-1.021,0.177c-0.222,0-0.439-0.038-0.654-0.114
			c-0.214-0.076-0.406-0.187-0.574-0.33c-0.168-0.145-0.303-0.318-0.406-0.522c-0.103-0.204-0.154-0.434-0.154-0.689
			c0-0.182,0.029-0.353,0.088-0.515c0.059-0.161,0.14-0.311,0.244-0.449s0.228-0.264,0.372-0.374
			c0.144-0.111,0.301-0.206,0.472-0.286c-0.144-0.2-0.248-0.396-0.312-0.586c-0.064-0.19-0.096-0.381-0.096-0.57
			c0-0.2,0.037-0.39,0.11-0.57c0.073-0.18,0.179-0.336,0.318-0.47c0.139-0.133,0.31-0.239,0.512-0.318
			c0.202-0.078,0.433-0.117,0.688-0.117c0.234,0,0.444,0.036,0.629,0.107c0.186,0.072,0.345,0.168,0.477,0.288
			s0.236,0.258,0.312,0.412s0.12,0.314,0.134,0.48l-0.628,0.132c-0.117,0.023-0.203-0.027-0.256-0.152
			c-0.024-0.069-0.056-0.135-0.094-0.198c-0.039-0.062-0.086-0.117-0.139-0.164c-0.053-0.046-0.116-0.084-0.188-0.111
			c-0.072-0.028-0.155-0.042-0.248-0.042c-0.112,0-0.213,0.02-0.301,0.058c-0.088,0.039-0.162,0.091-0.222,0.156
			c-0.06,0.065-0.106,0.142-0.138,0.228c-0.032,0.087-0.048,0.179-0.048,0.274c0,0.08,0.008,0.157,0.024,0.231
			c0.016,0.075,0.042,0.149,0.08,0.225c0.037,0.074,0.086,0.151,0.146,0.229c0.061,0.079,0.135,0.164,0.223,0.254l1.535,1.597
			c0.089-0.168,0.159-0.346,0.213-0.532c0.053-0.187,0.088-0.376,0.104-0.568c0.008-0.061,0.029-0.11,0.064-0.147
			s0.082-0.057,0.145-0.057h0.615c-0.002,0.353-0.053,0.688-0.152,1.009c-0.098,0.319-0.24,0.614-0.424,0.884L964.652,72z
			 M960.8,69.296c-0.213,0.139-0.369,0.296-0.466,0.47c-0.097,0.175-0.146,0.362-0.146,0.562c0,0.146,0.025,0.278,0.076,0.396
			c0.051,0.118,0.119,0.217,0.206,0.299c0.086,0.081,0.188,0.144,0.304,0.188c0.116,0.044,0.24,0.066,0.37,0.066
			c0.235,0,0.449-0.037,0.644-0.11c0.195-0.073,0.371-0.176,0.529-0.306L960.8,69.296z"/>
		<path d="M973.636,70.636c0.059,0,0.11,0.022,0.155,0.068l0.424,0.46c-0.234,0.291-0.522,0.514-0.865,0.668
			s-0.754,0.232-1.234,0.232c-0.43,0-0.814-0.074-1.158-0.221c-0.342-0.146-0.635-0.351-0.877-0.611
			c-0.243-0.262-0.43-0.574-0.559-0.937s-0.193-0.759-0.193-1.188c0-0.435,0.068-0.833,0.207-1.194s0.334-0.673,0.586-0.934
			c0.252-0.262,0.553-0.465,0.902-0.61s0.736-0.218,1.16-0.218c0.422,0,0.795,0.069,1.122,0.208s0.604,0.319,0.834,0.544l-0.36,0.5
			c-0.021,0.031-0.049,0.06-0.082,0.084c-0.033,0.023-0.079,0.036-0.138,0.036c-0.04,0-0.081-0.012-0.124-0.034
			s-0.09-0.051-0.141-0.084s-0.109-0.07-0.176-0.11s-0.144-0.076-0.231-0.11c-0.089-0.033-0.19-0.061-0.306-0.084
			c-0.117-0.022-0.25-0.033-0.402-0.033c-0.259,0-0.496,0.046-0.71,0.138c-0.215,0.092-0.399,0.226-0.554,0.4
			c-0.155,0.174-0.275,0.388-0.36,0.64s-0.128,0.539-0.128,0.862c0,0.325,0.046,0.614,0.138,0.867
			c0.093,0.254,0.217,0.467,0.374,0.641c0.157,0.173,0.343,0.306,0.557,0.397c0.213,0.093,0.441,0.139,0.688,0.139
			c0.146,0,0.279-0.009,0.398-0.024c0.118-0.016,0.228-0.041,0.328-0.076c0.1-0.034,0.193-0.079,0.283-0.134
			s0.178-0.122,0.266-0.202c0.027-0.023,0.055-0.043,0.084-0.058S973.604,70.636,973.636,70.636z"/>
		<path d="M981.548,69.108c0,0.424-0.07,0.816-0.21,1.178c-0.141,0.361-0.338,0.674-0.594,0.938
			c-0.256,0.265-0.564,0.471-0.924,0.618c-0.361,0.148-0.761,0.223-1.201,0.223c-0.438,0-0.836-0.074-1.195-0.223
			c-0.36-0.147-0.669-0.354-0.926-0.618c-0.258-0.264-0.457-0.576-0.598-0.938c-0.143-0.361-0.213-0.754-0.213-1.178
			c0-0.425,0.07-0.817,0.213-1.179c0.141-0.361,0.34-0.674,0.598-0.938c0.257-0.265,0.565-0.47,0.926-0.618
			c0.359-0.148,0.758-0.222,1.195-0.222c0.294,0,0.57,0.033,0.828,0.102c0.26,0.068,0.496,0.164,0.713,0.288
			c0.215,0.124,0.41,0.274,0.582,0.452c0.172,0.177,0.317,0.375,0.438,0.594s0.211,0.456,0.273,0.712S981.548,68.825,981.548,69.108
			z M980.447,69.108c0-0.317-0.043-0.603-0.127-0.854c-0.086-0.252-0.207-0.466-0.365-0.642c-0.156-0.177-0.348-0.311-0.573-0.404
			s-0.479-0.14-0.763-0.14c-0.282,0-0.536,0.046-0.762,0.14c-0.225,0.094-0.417,0.228-0.576,0.404
			c-0.158,0.176-0.28,0.39-0.365,0.642c-0.086,0.252-0.129,0.537-0.129,0.854s0.043,0.602,0.129,0.854
			c0.085,0.252,0.207,0.466,0.365,0.64c0.159,0.175,0.352,0.31,0.576,0.402c0.226,0.094,0.479,0.14,0.762,0.14
			c0.283,0,0.537-0.046,0.763-0.14c0.226-0.093,0.417-0.228,0.573-0.402c0.158-0.174,0.279-0.388,0.365-0.64
			C980.404,69.71,980.447,69.426,980.447,69.108z"/>
		<path d="M986.775,67.268c-0.032,0.057-0.066,0.097-0.102,0.122c-0.037,0.025-0.081,0.038-0.135,0.038
			c-0.056,0-0.117-0.021-0.182-0.062c-0.065-0.042-0.144-0.088-0.234-0.139c-0.09-0.05-0.196-0.096-0.318-0.138
			c-0.121-0.041-0.264-0.062-0.43-0.062c-0.148,0-0.279,0.018-0.392,0.054s-0.206,0.086-0.282,0.15
			c-0.076,0.063-0.133,0.141-0.17,0.229c-0.037,0.09-0.057,0.188-0.057,0.294c0,0.136,0.039,0.25,0.115,0.34
			c0.075,0.091,0.176,0.168,0.301,0.232c0.126,0.063,0.269,0.121,0.429,0.172s0.323,0.104,0.491,0.162
			c0.169,0.058,0.332,0.124,0.492,0.2s0.303,0.172,0.429,0.288c0.125,0.115,0.226,0.258,0.302,0.426s0.114,0.372,0.114,0.612
			c0,0.261-0.045,0.506-0.134,0.733c-0.09,0.229-0.221,0.427-0.393,0.596c-0.172,0.17-0.382,0.303-0.63,0.4
			s-0.532,0.146-0.853,0.146c-0.184,0-0.365-0.019-0.543-0.055c-0.18-0.036-0.351-0.087-0.515-0.153
			c-0.163-0.067-0.317-0.147-0.462-0.24c-0.145-0.094-0.271-0.197-0.384-0.312l0.315-0.516c0.027-0.037,0.062-0.068,0.104-0.094
			s0.088-0.038,0.136-0.038c0.066,0,0.139,0.027,0.217,0.082c0.076,0.055,0.169,0.115,0.275,0.182
			c0.107,0.066,0.231,0.128,0.374,0.182c0.143,0.055,0.313,0.082,0.515,0.082c0.307,0,0.543-0.072,0.711-0.218
			s0.252-0.354,0.252-0.626c0-0.151-0.037-0.275-0.113-0.372c-0.076-0.096-0.177-0.177-0.303-0.242
			c-0.125-0.064-0.268-0.12-0.428-0.166c-0.16-0.045-0.322-0.094-0.488-0.147c-0.165-0.054-0.328-0.117-0.487-0.192
			c-0.16-0.074-0.303-0.172-0.429-0.292c-0.125-0.12-0.226-0.27-0.301-0.45c-0.076-0.18-0.115-0.401-0.115-0.666
			c0-0.21,0.043-0.415,0.127-0.615s0.205-0.378,0.365-0.532s0.357-0.278,0.592-0.372c0.235-0.094,0.504-0.14,0.809-0.14
			c0.342,0,0.656,0.053,0.943,0.159c0.289,0.107,0.534,0.257,0.736,0.448L986.775,67.268z"/>
		<path d="M995.556,66.216V72h-0.948v-3.736c0-0.149,0.008-0.311,0.024-0.483l-1.748,3.284c-0.083,0.157-0.21,0.235-0.38,0.235
			h-0.152c-0.17,0-0.297-0.078-0.38-0.235l-1.769-3.297c0.008,0.089,0.016,0.175,0.021,0.261c0.005,0.085,0.008,0.164,0.008,0.235
			V72h-0.948v-5.784h0.812c0.048,0,0.09,0.002,0.124,0.004c0.034,0.003,0.065,0.01,0.094,0.021s0.054,0.027,0.076,0.052
			s0.044,0.056,0.065,0.096l1.732,3.212c0.045,0.086,0.088,0.174,0.126,0.265s0.077,0.184,0.114,0.279
			c0.037-0.099,0.076-0.193,0.115-0.285c0.041-0.093,0.084-0.181,0.129-0.267l1.708-3.204c0.021-0.04,0.044-0.071,0.067-0.096
			c0.024-0.024,0.051-0.041,0.078-0.052c0.028-0.011,0.06-0.018,0.094-0.021c0.035-0.002,0.076-0.004,0.125-0.004H995.556z"/>
		<path d="M999.123,67.072v1.604h2.024v0.828h-2.024v1.636h2.568V72h-3.648v-5.784h3.648v0.856H999.123z"/>
		<path d="M1007.883,67.1h-1.744V72h-1.076v-4.9h-1.743v-0.884h4.563V67.1z"/>
		<path d="M1010.924,72h-1.08v-5.784h1.08V72z"/>
		<path d="M1017.387,70.636c0.059,0,0.111,0.022,0.156,0.068l0.424,0.46c-0.234,0.291-0.523,0.514-0.865,0.668
			c-0.344,0.154-0.754,0.232-1.234,0.232c-0.43,0-0.815-0.074-1.158-0.221s-0.635-0.351-0.878-0.611
			c-0.243-0.262-0.429-0.574-0.558-0.937c-0.13-0.362-0.194-0.759-0.194-1.188c0-0.435,0.069-0.833,0.208-1.194
			s0.334-0.673,0.586-0.934c0.252-0.262,0.553-0.465,0.902-0.61s0.736-0.218,1.16-0.218c0.421,0,0.795,0.069,1.121,0.208
			c0.327,0.139,0.605,0.319,0.834,0.544l-0.359,0.5c-0.021,0.031-0.049,0.06-0.082,0.084c-0.033,0.023-0.08,0.036-0.139,0.036
			c-0.039,0-0.081-0.012-0.123-0.034c-0.043-0.022-0.09-0.051-0.141-0.084s-0.109-0.07-0.176-0.11s-0.145-0.076-0.232-0.11
			c-0.088-0.033-0.189-0.061-0.306-0.084c-0.116-0.022-0.25-0.033-0.401-0.033c-0.26,0-0.496,0.046-0.711,0.138
			s-0.398,0.226-0.554,0.4c-0.155,0.174-0.274,0.388-0.36,0.64c-0.085,0.252-0.127,0.539-0.127,0.862
			c0,0.325,0.045,0.614,0.137,0.867c0.093,0.254,0.217,0.467,0.375,0.641c0.156,0.173,0.342,0.306,0.556,0.397
			c0.214,0.093,0.442,0.139,0.688,0.139c0.146,0,0.279-0.009,0.397-0.024s0.228-0.041,0.328-0.076
			c0.101-0.034,0.194-0.079,0.284-0.134c0.089-0.055,0.178-0.122,0.266-0.202c0.027-0.023,0.055-0.043,0.084-0.058
			S1017.355,70.636,1017.387,70.636z"/>
	</g>
</g>
</svg>
